<?xml version="1.0" encoding="utf-8"?>
<!-- Generator: Adobe Illustrator 24.1.0, SVG Export Plug-In . SVG Version: 6.00 Build 0)  -->
<svg version="1.1" id="Layer_1" xmlns="http://www.w3.org/2000/svg" xmlns:xlink="http://www.w3.org/1999/xlink" x="0px" y="0px"
	 viewBox="0 0 21 19" enable-background="new 0 0 21 19" xml:space="preserve">
<desc>Created with Sketch.</desc>
<g id="Page-1">
	<g id="Store" transform="translate(-1313.000000, -37.000000)">
		<g id="Menu">
			<path id="icn_basket" d="M1331.6,42.1L1331.6,42.1c1.2,0,2.2,0.8,2.4,2c0.2,1.1-0.5,2.3-1.6,2.7l-1.1,6.4
				c-0.3,1.7-1.7,2.9-3.5,2.9h-8.8c-1.7,0-3.2-1.2-3.5-2.9l-1.1-6.4c-1.1-0.4-1.7-1.5-1.5-2.7c0.2-1.1,1.2-2,2.4-2h0.8l3.6-4.7
				c0.3-0.4,1-0.5,1.4-0.2c0.4,0.3,0.5,0.9,0.2,1.4l-2.7,3.5h9.7l-2.7-3.5c-0.3-0.4-0.2-1.1,0.2-1.4c0.4-0.3,1.1-0.2,1.4,0.2
				l3.6,4.7H1331.6z M1315.4,44.1c-0.2,0-0.4,0.2-0.4,0.4c0,0.2,0.2,0.4,0.4,0.4h16.1c0.2,0,0.4-0.2,0.4-0.4c0-0.2-0.2-0.4-0.4-0.4
				H1315.4z M1327.9,54L1327.9,54c0.7,0,1.4-0.5,1.5-1.2l1-5.9h-13.7l1,5.9c0.1,0.7,0.7,1.2,1.5,1.2H1327.9z M1326,48.3
				c0.6,0,1,0.5,1,1.1c0,0.6-0.5,1.1-1,1.1h-5.6c-0.6,0-1-0.5-1-1.1c0-0.6,0.5-1.1,1-1.1H1326z M1326,51.1c0.6,0,1,0.5,1,1.1
				c0,0.6-0.5,1.1-1,1.1h-5.6c-0.6,0-1-0.5-1-1.1c0-0.6,0.5-1.1,1-1.1H1326z"/>
		</g>
	</g>
</g>
</svg>
