<?xml version="1.0" encoding="utf-8"?>
<!-- Generator: Adobe Illustrator 24.1.0, SVG Export Plug-In . SVG Version: 6.00 Build 0)  -->
<svg version="1.1" id="Layer_1" xmlns="http://www.w3.org/2000/svg" xmlns:xlink="http://www.w3.org/1999/xlink" x="0px" y="0px"
	 viewBox="0 0 21.2 19.1" enable-background="new 0 0 21.2 19.1" xml:space="preserve">
<path d="M18.7,5.1L18.7,5.1c1.2,0,2.2,0.8,2.4,2c0.2,1.1-0.5,2.3-1.6,2.7l-1.1,6.4c-0.3,1.7-1.7,2.9-3.5,2.9H6.1
	c-1.7,0-3.2-1.2-3.5-2.9L1.5,9.8C0.4,9.4-0.2,8.3,0,7.1c0.2-1.1,1.2-2,2.4-2h0.8l3.6-4.7c0.3-0.4,1-0.5,1.4-0.2
	c0.4,0.3,0.5,0.9,0.2,1.4L5.7,5.1h9.7l-2.7-3.5c-0.3-0.4-0.2-1.1,0.2-1.4C13.3-0.1,14,0,14.3,0.4l3.6,4.7H18.7z M2.5,7.1
	c-0.2,0-0.4,0.2-0.4,0.4s0.2,0.4,0.4,0.4h16.1c0.2,0,0.4-0.2,0.4-0.4s-0.2-0.4-0.4-0.4H2.5z M15,17L15,17c0.7,0,1.4-0.5,1.5-1.2
	l1-5.9H3.8l1,5.9C4.9,16.5,5.5,17,6.3,17H15z M13.1,11.3c0.6,0,1,0.5,1,1.1s-0.5,1.1-1,1.1H7.5c-0.6,0-1-0.5-1-1.1s0.5-1.1,1-1.1
	H13.1z M13.1,14.1c0.6,0,1,0.5,1,1.1s-0.5,1.1-1,1.1H7.5c-0.6,0-1-0.5-1-1.1s0.5-1.1,1-1.1H13.1z"/>
</svg>
